HIERARCHY
ROOT root
{
	OFFSET 0.000000 0.000000 0.000000
	CHANNELS 6 Xposition Yposition Zposition Zrotation Yrotation Xrotation
	JOINT lhip
	{
		OFFSET 0.058581 -0.082280 -0.017664
		CHANNELS 3 Zrotation Yrotation Xrotation
		JOINT lknee
		{
			OFFSET 0.043451 -0.386469 0.008037
			CHANNELS 3 Zrotation Yrotation Xrotation
			JOINT lankle
			{
				OFFSET -0.014790 -0.426874 -0.037428
				CHANNELS 3 Zrotation Yrotation Xrotation
				JOINT ltoe
				{
					OFFSET 0.041054 -0.060286 0.122042
					CHANNELS 3 Zrotation Yrotation Xrotation
					End Site
					{
						OFFSET 0.000000 0.000000 0.000000
					}
				}
			}
		}
	}
	JOINT rhip
	{
		OFFSET -0.060310 -0.090513 -0.013543
		CHANNELS 3 Zrotation Yrotation Xrotation
		JOINT rknee
		{
			OFFSET -0.043257 -0.383688 -0.004843
			CHANNELS 3 Zrotation Yrotation Xrotation
			JOINT rankle
			{
				OFFSET 0.019056 -0.420046 -0.034562
				CHANNELS 3 Zrotation Yrotation Xrotation
				JOINT rtoe
				{
					OFFSET -0.034840 -0.062106 0.130323
					CHANNELS 3 Zrotation Yrotation Xrotation
					End Site
					{
						OFFSET 0.000000 0.000000 0.000000
					}
				}
			}
		}
	}
	JOINT lowerback
	{
		OFFSET 0.004439 0.124404 -0.038385
		CHANNELS 3 Zrotation Yrotation Xrotation
		JOINT upperback
		{
			OFFSET 0.004488 0.137956 0.026820
			CHANNELS 3 Zrotation Yrotation Xrotation
			JOINT chest
			{
				OFFSET -0.002265 0.056032 0.002855
				CHANNELS 3 Zrotation Yrotation Xrotation
				JOINT lowerneck
				{
					OFFSET -0.013390 0.211636 -0.033468
					CHANNELS 3 Zrotation Yrotation Xrotation
					JOINT upperneck
					{
						OFFSET 0.010113 0.088937 0.050410
						CHANNELS 3 Zrotation Yrotation Xrotation
						End Site
						{
							OFFSET 0.000000 0.000000 0.000000
						}
					}
				}
				JOINT lclavicle
				{
					OFFSET 0.071702 0.114000 -0.018898
					CHANNELS 3 Zrotation Yrotation Xrotation
					JOINT lshoulder
					{
						OFFSET 0.122921 0.045205 -0.019046
						CHANNELS 3 Zrotation Yrotation Xrotation
						JOINT lelbow
						{
							OFFSET 0.255332 -0.015649 -0.022946
							CHANNELS 3 Zrotation Yrotation Xrotation
							JOINT lwrist
							{
								OFFSET 0.265709 0.012698 -0.007375
								CHANNELS 3 Zrotation Yrotation Xrotation
								End Site
								{
									OFFSET 0.000000 0.000000 0.000000
								}
							}
						}
					}
				}
				JOINT rclavicle
				{
					OFFSET -0.082954 0.112472 -0.023707
					CHANNELS 3 Zrotation Yrotation Xrotation
					JOINT rshoulder
					{
						OFFSET -0.113228 0.046853 -0.008472
						CHANNELS 3 Zrotation Yrotation Xrotation
						JOINT relbow
						{
							OFFSET -0.260127 -0.014369 -0.031269
							CHANNELS 3 Zrotation Yrotation Xrotation
							JOINT rwrist
							{
								OFFSET -0.269108 0.006794 -0.006027
								CHANNELS 3 Zrotation Yrotation Xrotation
								End Site
								{
									OFFSET 0.000000 0.000000 0.000000
								}
							}
						}
					}
				}
			}
		}
	}
}
MOTION
Frames: 13
Frame Time: 0.033333
1.026162 0.207687 1.019138 88.793940 2.737975 81.946316 -0.278556 0.106659 11.310963 -7.965456 -26.758443 6.133843 6.065537 5.633026 -11.233298 0.000000 -0.000000 0.000000 -6.946846 -2.998819 -40.665873 1.965696 -16.991902 109.913041 5.017176 -3.497808 -11.010823 0.000000 -0.000000 0.000000 -0.914617 -6.721218 23.379469 4.202847 2.738287 -4.439653 -0.085828 -3.647375 2.341000 4.533728 11.107920 4.897430 -8.701036 2.570794 20.768292 -28.514543 8.041908 0.464609 -53.224383 -5.551466 8.910654 9.168933 -34.754500 2.777779 -3.690691 -2.726871 -8.888576 33.712003 -4.097039 -1.123071 48.084689 2.394925 12.930266 -14.916204 26.813927 -13.915735 7.137850 4.041413 -5.838005 
1.048638 0.203882 1.016326 90.768089 2.607626 81.405361 -0.218312 -0.141396 12.978141 -8.272534 -26.580000 6.991868 5.893591 5.187780 -11.575995 0.000000 -0.000000 0.000000 -7.155051 -1.747099 -39.849299 2.761854 -16.363298 92.888599 6.530038 -4.766944 -6.693379 0.000000 -0.000000 0.000000 -0.865941 -6.891867 22.831938 3.913228 2.443448 -3.963453 0.136385 -3.798177 2.671217 4.028071 10.295974 4.738575 -7.941886 2.569964 20.309968 -28.463663 8.216268 1.028910 -53.737717 -6.588638 9.354671 9.323414 -35.414974 2.932353 -3.239658 -3.637932 -8.620832 33.344103 -4.349698 -0.811339 48.684465 2.548942 13.501137 -14.671023 26.577845 -13.550015 6.853808 4.039837 -5.973127 
1.070689 0.200260 1.012549 93.356182 2.353441 81.447374 -0.460764 0.129346 13.742299 -8.170863 -26.027485 8.051281 5.509567 4.482457 -11.727097 0.000000 -0.000000 0.000000 -7.387537 -1.402864 -36.728821 2.005530 -15.713819 73.764141 7.606733 -7.613781 -4.211566 0.000000 -0.000000 0.000000 -0.679650 -6.875128 22.125887 3.512073 1.802109 -3.936021 0.434109 -4.146058 2.871776 3.450977 9.439299 4.682692 -7.198755 2.838698 19.895721 -28.381825 8.513256 1.495228 -54.088781 -7.332449 9.605901 8.809482 -36.054497 3.793577 -2.855055 -4.411219 -8.338283 33.173502 -4.794054 -0.782719 49.023665 2.498034 14.088707 -14.723281 26.622016 -13.028518 6.427894 3.919366 -5.350566 
1.094231 0.196126 1.007317 95.916431 2.086624 81.478583 -0.629753 0.052800 15.031382 -7.675010 -25.109183 8.298890 5.151715 3.582012 -12.491961 0.000000 -0.000000 0.000000 -7.231371 -1.044208 -31.466370 1.667140 -15.025674 53.714666 8.329886 -10.011294 -0.669627 0.000000 -0.000000 0.000000 -0.549065 -6.516914 20.913714 3.182013 1.161994 -3.610183 0.859372 -4.309712 3.322276 2.781299 7.962336 4.535588 -6.394706 2.833830 19.148926 -27.994416 8.505927 2.147940 -54.816883 -7.963411 9.946970 7.843280 -35.626635 5.162186 -2.204235 -5.035873 -9.572674 32.729460 -5.335915 -0.984160 49.475107 2.663026 14.485475 -14.340437 26.660742 -12.160437 5.860931 4.535239 -5.866337 
1.119405 0.190670 1.001037 98.326685 1.661455 81.488737 -0.513751 -0.050619 16.575990 -7.515196 -24.948897 8.378349 4.828038 3.086100 -13.954948 0.000000 -0.000000 0.000000 -6.838217 -0.573231 -25.779396 2.331433 -12.472772 35.927588 9.921451 -10.282699 2.473336 0.000000 -0.000000 0.000000 -0.530994 -5.636256 19.476928 2.913729 0.402021 -2.736733 1.060512 -4.398651 3.378804 2.341476 6.717241 4.410332 -5.492567 2.065505 18.223328 -27.769318 8.409318 2.576737 -54.644325 -8.231317 10.214189 7.169295 -36.603029 6.862092 -3.067072 -4.890824 -7.914916 32.731819 -5.668189 -1.339949 49.808109 2.175303 14.379123 -14.406142 27.035486 -12.135367 5.758854 4.208105 -5.889661 
1.144843 0.184599 0.994233 100.743950 1.024287 81.771796 -0.451679 -0.659649 17.289027 -7.779728 -25.686327 9.629019 4.857494 2.404110 -15.198715 0.000000 -0.000000 0.000000 -6.483019 -1.118085 -21.740087 1.550481 -11.009024 24.844326 10.958265 -10.734054 5.394530 0.000000 -0.000000 0.000000 -0.908336 -4.875109 18.312140 2.669820 -0.086593 -2.662321 1.287867 -4.321528 3.087464 2.152216 5.514967 4.588311 -4.930344 1.578042 18.135455 -27.442209 8.647236 2.935553 -54.462857 -7.902570 10.429723 5.936709 -36.775169 8.918572 -3.568573 -4.525233 -7.715417 32.569851 -6.106015 -0.960348 50.198191 1.726910 14.378979 -14.529294 27.559608 -11.952671 5.257228 4.028944 -6.224851 
1.172176 0.177445 0.988282 101.961727 0.747725 81.840291 -0.033533 -0.995791 17.728420 -8.403681 -26.364052 12.051366 5.029818 2.072164 -16.483652 0.000000 -0.000000 0.000000 -5.421225 -1.760449 -19.567039 1.176315 -11.044310 22.142418 9.518788 -11.142160 7.134616 0.000000 -0.000000 0.000000 -0.872300 -4.193654 17.589657 2.401695 0.235635 -2.785688 1.156495 -4.017066 2.841861 2.213838 4.570290 4.269157 -4.756309 1.090270 18.523428 -28.299645 9.163723 2.689697 -53.206597 -7.436540 10.180573 5.409221 -36.967599 9.565659 -3.394178 -5.109781 -6.563811 32.947653 -6.287856 -1.261123 50.035956 1.329639 14.200670 -13.774937 26.792454 -11.664788 5.501321 4.284928 -6.296910 
1.200140 0.168281 0.984043 101.075427 0.720645 82.065894 0.241276 -1.185206 17.784065 -9.049322 -26.163946 14.965325 4.309392 2.595395 -16.319982 0.000000 -0.000000 0.000000 -3.208368 -1.930946 -18.886051 0.979541 -9.211409 23.300072 5.597205 -10.172835 5.427262 0.000000 -0.000000 0.000000 -0.576156 -3.277450 16.501208 2.113678 1.348743 -2.743788 0.871399 -3.088909 3.259650 2.650209 4.447517 3.548296 -5.337992 0.804367 18.405219 -29.069052 10.322370 1.032390 -52.641903 -6.913217 10.099680 5.201603 -36.280332 10.403173 -3.420822 -5.149168 -6.228523 33.070565 -5.953791 -1.204034 50.130166 1.710401 14.290646 -13.396723 25.890060 -11.214352 5.474834 4.309867 -6.650099 
1.228909 0.159438 0.982523 99.437573 0.325347 81.952304 0.074217 -0.588285 17.112929 -10.124505 -24.626792 19.984512 2.685982 2.600281 -15.480745 0.000000 -0.000000 0.000000 -1.532891 -2.086256 -17.578820 0.417518 -7.796454 23.119321 3.636184 -10.553339 2.656382 0.000000 -0.000000 0.000000 -0.537980 -2.299016 15.948686 1.629729 2.395519 -2.774060 0.530311 -2.130878 3.290705 2.645019 4.178453 2.607913 -5.360325 0.237101 18.827156 -29.656867 11.283492 0.093112 -52.458233 -5.862013 9.569758 6.354583 -35.038010 8.777431 -1.976071 -4.472010 -6.151335 33.465969 -5.169881 -1.187963 49.998667 2.314043 14.420867 -12.947606 24.456464 -11.014126 5.122356 4.019629 -6.233635 
1.257276 0.151035 0.984560 98.257970 0.321645 81.705544 0.267068 -1.146950 15.157741 -12.579102 -22.958992 27.505761 0.231606 1.116859 -10.414671 0.000000 -0.000000 0.000000 -0.291260 -1.831309 -14.942397 0.503696 -7.459155 22.275331 1.447914 -9.672294 0.494194 0.000000 -0.000000 0.000000 -0.024982 -1.653785 15.370219 1.400860 2.745796 -2.158178 0.372343 -1.368584 2.799345 1.683237 4.031053 2.658698 -5.112835 0.595676 17.215466 -30.156873 11.405656 0.389831 -52.910724 -4.604699 8.509240 8.028080 -33.549239 6.389202 -2.691269 -3.628863 -7.606472 32.928923 -4.188293 -0.180685 50.299705 3.036709 13.808502 -13.110086 24.755614 -10.265168 5.668411 2.685518 -6.520657 
1.284925 0.143169 0.989807 97.365518 0.667477 81.252076 1.346383 -1.027644 11.106276 -14.952864 -19.891077 36.917650 -5.538579 -0.933598 -3.984274 0.000000 -0.000000 0.000000 0.978331 -1.474239 -11.970359 0.697307 -7.144961 21.048328 0.713795 -8.768421 -1.429873 0.000000 -0.000000 0.000000 0.788821 -1.002962 15.471616 1.423533 2.699794 -1.999028 0.182310 -0.903250 2.113824 0.957647 4.108502 2.548852 -4.737292 0.585326 16.953848 -30.617236 11.396590 0.267979 -53.495737 -3.440084 7.830668 8.920694 -29.991567 4.131953 -2.812778 -3.031325 -8.922887 32.756049 -3.510169 0.120559 49.886131 3.867842 13.549422 -12.439054 24.197828 -9.641766 5.356510 3.146634 -7.430233 
1.309400 0.135112 0.994703 97.177772 0.871599 81.171654 1.779965 -2.287184 5.815363 -18.148058 -18.044768 46.279479 -9.784133 -2.744447 4.245427 0.000000 -0.000000 0.000000 1.963484 -1.802119 -9.354349 1.092010 -6.963294 19.298273 -1.138045 -8.368279 -1.972412 0.000000 -0.000000 0.000000 1.294789 -0.316876 15.711573 1.597832 2.114647 -2.033998 0.210668 -0.944633 1.493903 0.010676 4.217429 1.745282 -4.355322 1.145757 15.748845 -30.837096 11.337948 0.687113 -53.984559 -2.621238 7.459920 9.062693 -27.713772 3.358279 -2.964429 -2.317109 -9.741479 32.337002 -2.953159 0.257076 49.615295 4.483481 13.504037 -12.470837 25.578971 -9.179252 5.189094 3.083278 -8.299920 
1.330214 0.127200 0.997627 96.760469 0.679115 81.142494 1.271128 -3.432652 0.259693 -20.795124 -16.143019 54.647027 -8.373692 -3.276826 6.933988 0.000000 -0.000000 0.000000 2.729567 -2.529621 -7.308939 1.176361 -5.899642 17.954259 -2.146623 -8.129327 -2.873934 0.000000 -0.000000 0.000000 1.245981 0.787679 16.165242 1.658192 1.524854 -2.037052 0.474494 -1.127490 1.546719 -0.389989 4.343043 -0.360831 -4.297694 1.712663 14.617219 -30.872478 10.486339 0.739703 -54.308409 -1.872571 7.470120 8.536742 -26.581986 4.320415 -3.358411 -1.916025 -9.996210 31.862698 -1.839750 0.348031 49.443516 5.323238 13.457052 -12.680931 27.368445 -9.651704 4.927805 3.448676 -9.983948 
